<svg version="1.1" xmlns="http://www.w3.org/2000/svg" x="0" y="0" viewBox="0 0 140 160" xml:space="preserve">
	<style>
		.fade {
			opacity: 0;
			animation: 6s ease-out 0 fadeInOut;
			animation-iteration-count: infinite;
		}

		.fade.olympics .ring {
			animation: 6s ease-out 0 ring;
			animation-iteration-count: infinite;
			stroke-dasharray: 66;
      stroke-dashoffset: 66;
		}

		.fade.olympics .ring.blue {
			animation-delay: 0;
			transform: rotate(-90deg);
      transform-origin: 44.9px 137.8px;
		}

		.fade.olympics .ring.black {
			animation-delay: 0.05s;
			transform: rotate(180deg);
      transform-origin: 70px 137.8px;
		}

		.fade.olympics .ring.red {
			animation-delay: 0.1s;
			transform: rotate(180deg);
      transform-origin: 95px 137.8px;
		}

		.fade.olympics .ring.yellow {
			animation-delay: 0.15s;
			transform: rotate(-90deg);
      transform-origin: 57.3px 148.5px;
		}

		.fade.olympics .ring.green {
			animation-delay: 0.2s;
			transform: rotate(-90deg);
      transform-origin: 82px 148.5px;
		}

		.fade.paralympics {
			animation-delay: 3s;
		}

		.fade.paralympics .agitos {
			animation: 6s ease-out 3s rotation;
			animation-iteration-count: infinite;
			transform-origin: center;
		}

		@keyframes fadeInOut {
			0% { opacity: 0; transform: translateX(-20px); }
			10%,50% { opacity: 1; transform: translateX(0); }
			60% { opacity: 0; transform: translateX(20px) }
		}

		@keyframes ring {
			0% { stroke-dashoffset: 66; }
			5% { stroke-dashoffset: 132; }
      49.9% { stroke-dasharray: 66; stroke-dashoffset: 132; }
			50% { stroke-dasharray: 132; stroke-dashoffset: 66; }
			60% { stroke-dashoffset: 132; }
		}

		@keyframes rotation {
			0% { transform: rotate(10deg); }
			20%, 50% { transform: rotate(0); }
			60% { transform: rotate(-5deg); }
		}

    .color .emblem path {
      fill: #d7c378;
    }


    .fade.olympics .ring-mask {
			animation: 6s ease-out 0 ring-mask;
			animation-iteration-count: infinite;
      opacity: 0;
		}

    @keyframes ring-mask {
      4% { opacity: 0; }
      6% { opacity: 1; }
      49% { opacity: 1; }
      51% { opacity: 0; }
		}
	</style>

  <g class="color">
    <g class="emblem">
      <path d="M74.9,76.8c-1.2-0.4-3.2-0.5-4.9,0.9c-1.7-1.4-3.7-1.3-4.9-0.9c-1,0.4-1.8,0.6-3.3,0.6c1.5,3,4.6,5.1,8.2,5.1 c3.6,0,6.7-2.1,8.2-5.1C76.7,77.4,75.9,77.1,74.9,76.8z"/>
      <path d="M70,0C45.3,0,25.2,20,25.2,44.7c0,21.2,14.7,38.9,34.5,43.6C44,79.9,37.6,60.6,45.2,44.5 c1.2,6.4,5.4,12.1,11.6,15C48.7,40.6,54.7,18.3,71.4,6C68.1,17.2,73.1,27.5,84,35.3c12.4,8.9,12.9,27.1,2,36.9 c4.3-1,8.4-3.4,11.4-7.1c-1.9,9.6-7.9,18.3-17.1,23.2c19.8-4.6,34.5-22.4,34.5-43.6C114.8,20,94.7,0,70,0z"/>
    </g>

    <g class="paris2024">
      <title>Paris 2024</title>
      <path d="M137.9 103.9v4.6c-1-.7-2.3-.9-3.4-1.6-.9-.5-1.2-1.5-1.2-2.5v-4.2h-2.2v4.2c0 1.4.4 2.9 1.6 3.8.8.6 1.7.9 2.6 1.2.8.3 1.7.6 2.2 1.3.4.5.5 1.1.5 1.8v1.3h2.1v-9.9h-2.2zM122.6 107.6c.5-.6 1-1.2 1.3-1.9.3-.7.4-1.4.3-2.1-.2-1.4-1.2-2.6-2.5-3.1-1.3-.6-3-.6-4.3.1-1.3.6-2.2 1.9-2.3 3.3-.1 1.5.6 2.8 1.8 3.7l1.2-1.5c-.4-.4-.8-.9-.9-1.5-.1-.6 0-1.1.4-1.6.7-.9 2.1-1.2 3.2-.7.5.3 1 .7 1.1 1.2.2.6.1 1.2-.1 1.7-.3.5-.6 1-1 1.5-1.5 1.8-2.9 3.5-4.4 5.3-.5.6-1 1.3-1.6 1.9h9.8V112H119l3.6-4.4zM106.1 109c-.8 1.9-2.9 3.2-5 3-2.1-.1-3.9-1.6-4.5-3.5-.6-2 .1-4.2 1.8-5.5 1.7-1.3 4.1-1.3 5.9-.1 2 1.3 2.8 3.9 1.8 6.1zm.5-7c-2.2-2.1-5.6-2.6-8.3-1.4-2.8 1.2-4.4 4.1-4.2 7 .3 2.9 2.5 5.4 5.4 6.1 2.9.7 6.2-.3 7.9-2.8 1.8-2.4 1.7-5.8-.1-8.2-.2-.2-.5-.4-.7-.7zM86.1 107.6c.5-.6 1-1.2 1.3-1.9.3-.7.4-1.4.3-2.1-.2-1.4-1.2-2.6-2.5-3.1-1.3-.6-3-.6-4.3.1-1.3.6-2.2 1.9-2.3 3.3-.1 1.5.6 2.8 1.8 3.7l1.2-1.5c-.4-.4-.8-.9-.9-1.5-.1-.6 0-1.1.4-1.6.7-.9 2.1-1.2 3.2-.7.5.3 1 .7 1.1 1.2.2.6.1 1.2-.1 1.7-.3.5-.6 1-1 1.5-1.5 1.8-2.9 3.5-4.4 5.3l-1.6 1.9h9.8V112h-5.6l3.6-4.4zM65.9 107.3c-.8-.6-1.7-.9-2.6-1.3-.9-.3-1.8-.6-2.5-1.3-.6-.6-.4-1.6.1-2.2.6-.6 1.6-.7 2.4-.5.9.3 1.5 1.1 1.5 2H67c0-1-.3-1.9-1-2.7-.7-.7-1.6-1.1-2.6-1.3-1-.1-2.1 0-3 .5-.9.5-1.6 1.2-1.9 2.1-.3.9-.2 2 .2 2.8.5.9 1.4 1.4 2.4 1.8 1 .4 2.2.7 3.2 1.3.4.3.7.6.8 1 .1.4.1.9-.1 1.3-.5 1-1.8 1.3-2.8 1.1-1.1-.2-2-1.1-2-2.3h-2.1c0 1.1.4 2.1 1.2 2.9.8.8 1.9 1.2 3.1 1.3 1.2.1 2.4-.1 3.4-.8.9-.6 1.5-1.6 1.6-2.6-.1-1.1-.5-2.3-1.5-3.1zM49.2 103.3v10.5h2.2V103c-.8 0-1.5.1-2.2.3zM49.2 102.1c.7-.2 1.4-.3 2.2-.3v-1.6h-2.2v1.9zM36.8 102.2c1.4 0 2.8.7 2.9 2.1.1.7-.1 1.4-.6 1.9-.5.6-1.3.9-2 1.3-.9.4-1.7.8-2.5 1.5v-6.8h2.2zm3.3 6.5c-.2-.1-.5-.2-.8-.3.7-.4 1.4-.8 1.9-1.4.4-.6.7-1.2.8-1.9.2-1.5-.3-2.9-1.6-3.8-1.7-1.2-3.8-1-5.8-1h-2.1v13.6h2.2v-1.2c0-.9.5-1.8 1.3-2.2.8-.5 1.9-.5 2.7-.2.8.4 1.4 1.2 1.5 2 .1.5 0 1.1 0 1.6h2.2c0-.7 0-1.5-.1-2.2-.3-1.3-1.1-2.4-2.2-3zM23 108.7c-1.3-1.3-3.2-1.7-5-1.4v-2.2c0-.4 0-.8.1-1.2.2-.8.8-1.4 1.6-1.6.8-.3 1.7-.1 2.4.4s1 1.3 1 2.1V109c0-.2-.1-.3-.1-.3zm0-8.1c-1.9-1-4.6-.7-6 .9-.7.8-1.1 1.8-1.1 2.8v9.5H18v-4.5c1.3-.2 2.7 0 3.8.7 1 .7 1.4 1.7 1.4 2.8v.9h2.2v-9.1c-.1-1.6-.8-3.2-2.4-4zM6.9 106c-.5.7-1.4 1.2-2.2 1.6-.9.4-1.8.9-2.5 1.5v-6.8h2.1c1.2 0 2.4.3 2.9 1.5.2.6.1 1.5-.3 2.2zm.1-5.2c-1-.5-2.2-.5-3.3-.5H0v13.6h2.2c0-.8-.1-1.6.3-2.3.5-1.2 1.8-1.7 2.9-2.2 1.2-.6 2.5-1.1 3.3-2.2.7-1 .9-2.2.7-3.4-.2-1.4-1.2-2.5-2.4-3z"/>
    </g>

    <g class="olympics fade">
      <circle class="ring blue" cx="44.9" cy="137.8" r="10.5" fill="none" stroke="#0081C8" stroke-width="2" stroke-miterlimit="10"/>
      <circle class="ring black" cx="70" cy="137.8" r="10.5" fill="none" stroke="#000000" stroke-width="2" stroke-miterlimit="10"/>
      <circle class="ring red" cx="95" cy="137.8" r="10.5" fill="none" stroke="#EE334E" stroke-width="2" stroke-miterlimit="10"/>
      <circle class="ring yellow" cx="57.3" cy="148.5" r="10.5" fill="none" stroke="#FCB131" stroke-width="2" stroke-miterlimit="10" />
      <circle class="ring green" cx="82.5" cy="148.5" r="10.5" fill="none" stroke="#00A651" stroke-width="2" stroke-miterlimit="10"/>

      <circle class="ring-mask blue" cx="44.9" cy="137.8" r="10.5" fill="none" stroke="#0081C8" stroke-width="2" stroke-miterlimit="10" stroke-dasharray="10" stroke-dashoffset="23"/>
      <circle class="ring-mask black" cx="70" cy="137.8" r="10.5" fill="none" stroke="#000000" stroke-width="2" stroke-miterlimit="10" stroke-dasharray="10" stroke-dashoffset="23"/>
      <circle class="ring-mask red" cx="95" cy="137.8" r="10.5" fill="none" stroke="#EE334E" stroke-width="2" stroke-miterlimit="10" stroke-dasharray="10" stroke-dashoffset="23"/>
    </g>

    <g class="paralympics fade">
      <path class="agitos red" fill="#EE334E" d="M67.7,126.8c-3.3-0.8-7.7,0.1-11.9,2.5c-6.6,3.8-10.1,10.1-7.8,14c1.5,2.5,4.9,3.5,9,2.9
      c-1.8-0.4-3.3-1.4-4.1-2.8c-2.3-4,1.2-10.2,7.8-14C63,128,65.5,127.1,67.7,126.8z"/>
      <path class="agitos green" fill="#00A651" d="M67.8,142.4c1,3.2,3.9,6.7,8.1,9.1 c6.6,3.8,13.8,3.7,16.1-0.3c1.5-2.5,0.6-6-2-9.2c0.6,1.8,0.5,3.5-0.3,5c-2.3,4-9.5,4.1-16.1,0.3C71.2,145.9,69.2,144.2,67.8,142.4z"/>
      <path class="agitos blue" fill="#0081C8" d="M63.3,134.6c-2.3,2.5-3.8,6.7-3.8,11.6 c0,7.6,3.7,13.8,8.3,13.8c2.9,0,5.5-2.5,7-6.3c-1.3,1.4-2.8,2.2-4.5,2.2c-4.6,0-8.3-6.2-8.3-13.8C62,139.3,62.5,136.8,63.3,134.6z"/>
    </g>
  </g>
</svg>
